<?xml version="1.0" encoding="UTF-8"?>
<svg width="45px" height="34px" viewBox="0 0 45 34" version="1.1" xmlns="http://www.w3.org/2000/svg" xmlns:xlink="http://www.w3.org/1999/xlink">
    <!-- Generator: Sketch 46.2 (44496) - http://www.bohemiancoding.com/sketch -->
    <title>id-card-o</title>
    <desc>Created with Sketch.</desc>
    <defs>
        <path d="M39.375,23.203125 L39.375,24.609375 C39.375,24.8144531 39.309082,24.9829102 39.1772461,25.1147461 C39.0454102,25.246582 38.8769531,25.3125 38.671875,25.3125 L23.203125,25.3125 C22.9980469,25.3125 22.8295898,25.246582 22.6977539,25.1147461 C22.565918,24.9829102 22.5,24.8144531 22.5,24.609375 L22.5,23.203125 C22.5,22.9980469 22.565918,22.8295898 22.6977539,22.6977539 C22.8295898,22.565918 22.9980469,22.5 23.203125,22.5 L38.671875,22.5 C38.8769531,22.5 39.0454102,22.565918 39.1772461,22.6977539 C39.309082,22.8295898 39.375,22.9980469 39.375,23.203125 Z M30.9375,17.578125 L30.9375,18.984375 C30.9375,19.1894531 30.871582,19.3579102 30.7397461,19.4897461 C30.6079102,19.621582 30.4394531,19.6875 30.234375,19.6875 L23.203125,19.6875 C22.9980469,19.6875 22.8295898,19.621582 22.6977539,19.4897461 C22.565918,19.3579102 22.5,19.1894531 22.5,18.984375 L22.5,17.578125 C22.5,17.3730469 22.565918,17.2045898 22.6977539,17.0727539 C22.8295898,16.940918 22.9980469,16.875 23.203125,16.875 L30.234375,16.875 C30.4394531,16.875 30.6079102,16.940918 30.7397461,17.0727539 C30.871582,17.2045898 30.9375,17.3730469 30.9375,17.578125 Z M39.375,17.578125 L39.375,18.984375 C39.375,19.1894531 39.309082,19.3579102 39.1772461,19.4897461 C39.0454102,19.621582 38.8769531,19.6875 38.671875,19.6875 L34.453125,19.6875 C34.2480469,19.6875 34.0795898,19.621582 33.9477539,19.4897461 C33.815918,19.3579102 33.75,19.1894531 33.75,18.984375 L33.75,17.578125 C33.75,17.3730469 33.815918,17.2045898 33.9477539,17.0727539 C34.0795898,16.940918 34.2480469,16.875 34.453125,16.875 L38.671875,16.875 C38.8769531,16.875 39.0454102,16.940918 39.1772461,17.0727539 C39.309082,17.2045898 39.375,17.3730469 39.375,17.578125 Z M39.375,11.953125 L39.375,13.359375 C39.375,13.5644531 39.309082,13.7329102 39.1772461,13.8647461 C39.0454102,13.996582 38.8769531,14.0625 38.671875,14.0625 L23.203125,14.0625 C22.9980469,14.0625 22.8295898,13.996582 22.6977539,13.8647461 C22.565918,13.7329102 22.5,13.5644531 22.5,13.359375 L22.5,11.953125 C22.5,11.7480469 22.565918,11.5795898 22.6977539,11.4477539 C22.8295898,11.315918 22.9980469,11.25 23.203125,11.25 L38.671875,11.25 C38.8769531,11.25 39.0454102,11.315918 39.1772461,11.4477539 C39.309082,11.5795898 39.375,11.7480469 39.375,11.953125 Z M42.1875,30.234375 L42.1875,5.625 L2.8125,5.625 L2.8125,30.234375 C2.8125,30.4248047 2.88208008,30.5895996 3.02124023,30.7287598 C3.16040039,30.8679199 3.32519531,30.9375 3.515625,30.9375 L41.484375,30.9375 C41.6748047,30.9375 41.8395996,30.8679199 41.9787598,30.7287598 C42.1179199,30.5895996 42.1875,30.4248047 42.1875,30.234375 Z M45,3.515625 L45,30.234375 C45,31.2011719 44.6557617,32.0288086 43.9672852,32.7172852 C43.2788086,33.4057617 42.4511719,33.75 41.484375,33.75 L3.515625,33.75 C2.54882812,33.75 1.72119141,33.4057617 1.03271484,32.7172852 C0.344238281,32.0288086 0,31.2011719 0,30.234375 L0,3.515625 C0,2.54882812 0.344238281,1.72119141 1.03271484,1.03271484 C1.72119141,0.344238281 2.54882812,0 3.515625,0 L41.484375,0 C42.4511719,0 43.2788086,0.344238281 43.9672852,1.03271484 C44.6557617,1.72119141 45,2.54882812 45,3.515625 Z" id="path-1"></path>
        <path d="M18.6875,23.8183594 C18.6875,24.6240234 18.4567871,25.3088379 17.9953613,25.8728027 C17.5339355,26.4367676 16.980957,26.71875 16.3364258,26.71875 L6.97607422,26.71875 C6.33154297,26.71875 5.77856445,26.4367676 5.31713867,25.8728027 C4.85571289,25.3088379 4.625,24.6240234 4.625,23.8183594 C4.625,23.0273438 4.67993164,22.2912598 4.78979492,21.6101074 C4.8996582,20.9289551 5.07910156,20.2697754 5.328125,19.6325684 C5.57714844,18.9953613 5.95068359,18.4936523 6.44873047,18.1274414 C6.94677734,17.7612305 7.54003906,17.578125 8.22851562,17.578125 C9.16601562,18.515625 10.3085938,18.984375 11.65625,18.984375 C13.0039063,18.984375 14.1464844,18.515625 15.0839844,17.578125 C15.7724609,17.578125 16.3657227,17.7612305 16.8637695,18.1274414 C17.3618164,18.4936523 17.7353516,18.9953613 17.984375,19.6325684 C18.2333984,20.2697754 18.4128418,20.9289551 18.5227051,21.6101074 C18.6325684,22.2912598 18.6875,23.0273438 18.6875,23.8183594 Z" id="path-2"></path>
        <path d="M15.875,14.0625 C15.875,15.234375 15.4648438,16.2304688 14.6445312,17.0507812 C13.8242188,17.8710938 12.828125,18.28125 11.65625,18.28125 C10.484375,18.28125 9.48828125,17.8710938 8.66796875,17.0507812 C7.84765625,16.2304688 7.4375,15.234375 7.4375,14.0625 C7.4375,12.890625 7.84765625,11.8945312 8.66796875,11.0742188 C9.48828125,10.2539062 10.484375,9.84375 11.65625,9.84375 C12.828125,9.84375 13.8242188,10.2539062 14.6445312,11.0742188 C15.4648438,11.8945312 15.875,12.890625 15.875,14.0625 Z" id="path-3"></path>
    </defs>
    <g id="Main-Screens" stroke="none" stroke-width="1" fill="none" fill-rule="evenodd">
        <g id="Shopping-List" transform="translate(-15.000000, -761.000000)">
            <g id="SideNav">
                <g id="id-card-o" transform="translate(15.000000, 761.000000)">
                    <g id="Shape" fill-rule="nonzero">
                        <use fill="#33C6D9" fill-rule="evenodd" xlink:href="#path-1"></use>
                        <path stroke="#FFFFFF" stroke-width="1" d="M38.875,23.203125 C38.875,23.1272877 38.8591387,23.0867533 38.8236927,23.0513073 C38.7882467,23.0158613 38.7477123,23 38.671875,23 L23.203125,23 C23.1272877,23 23.0867533,23.0158613 23.0513073,23.0513073 C23.0158613,23.0867533 23,23.1272877 23,23.203125 L23,24.609375 C23,24.6852123 23.0158613,24.7257467 23.0513073,24.7611927 C23.0867533,24.7966387 23.1272877,24.8125 23.203125,24.8125 L38.671875,24.8125 C38.7477123,24.8125 38.7882467,24.7966387 38.8236927,24.7611927 C38.8591387,24.7257467 38.875,24.6852123 38.875,24.609375 L38.875,23.203125 Z M30.4375,17.578125 C30.4375,17.5022877 30.4216387,17.4617533 30.3861927,17.4263073 C30.3507467,17.3908613 30.3102123,17.375 30.234375,17.375 L23.203125,17.375 C23.1272877,17.375 23.0867533,17.3908613 23.0513073,17.4263073 C23.0158613,17.4617533 23,17.5022877 23,17.578125 L23,18.984375 C23,19.0602123 23.0158613,19.1007467 23.0513073,19.1361927 C23.0867533,19.1716387 23.1272877,19.1875 23.203125,19.1875 L30.234375,19.1875 C30.3102123,19.1875 30.3507467,19.1716387 30.3861927,19.1361927 C30.4216387,19.1007467 30.4375,19.0602123 30.4375,18.984375 L30.4375,17.578125 Z M38.875,17.578125 C38.875,17.5022877 38.8591387,17.4617533 38.8236927,17.4263073 C38.7882467,17.3908613 38.7477123,17.375 38.671875,17.375 L34.453125,17.375 C34.3772877,17.375 34.3367533,17.3908613 34.3013073,17.4263073 C34.2658613,17.4617533 34.25,17.5022877 34.25,17.578125 L34.25,18.984375 C34.25,19.0602123 34.2658613,19.1007467 34.3013073,19.1361927 C34.3367533,19.1716387 34.3772877,19.1875 34.453125,19.1875 L38.671875,19.1875 C38.7477123,19.1875 38.7882467,19.1716387 38.8236927,19.1361927 C38.8591387,19.1007467 38.875,19.0602123 38.875,18.984375 L38.875,17.578125 Z M38.875,11.953125 C38.875,11.8772877 38.8591387,11.8367533 38.8236927,11.8013073 C38.7882467,11.7658613 38.7477123,11.75 38.671875,11.75 L23.203125,11.75 C23.1272877,11.75 23.0867533,11.7658613 23.0513073,11.8013073 C23.0158613,11.8367533 23,11.8772877 23,11.953125 L23,13.359375 C23,13.4352123 23.0158613,13.4757467 23.0513073,13.5111927 C23.0867533,13.5466387 23.1272877,13.5625 23.203125,13.5625 L38.671875,13.5625 C38.7477123,13.5625 38.7882467,13.5466387 38.8236927,13.5111927 C38.8591387,13.4757467 38.875,13.4352123 38.875,13.359375 L38.875,11.953125 Z M42.6875,30.234375 C42.6875,30.5586589 42.5643892,30.8502371 42.3323132,31.0823132 C42.1002371,31.3143892 41.8086589,31.4375 41.484375,31.4375 L3.515625,31.4375 C3.19134111,31.4375 2.89976288,31.3143892 2.66768684,31.0823132 C2.43561081,30.8502371 2.3125,30.5586589 2.3125,30.234375 L2.3125,5.125 L42.6875,5.125 L42.6875,30.234375 Z M44.5,3.515625 C44.5,2.68170052 44.2086256,1.98116207 43.6137318,1.38626823 C43.0188379,0.791374401 42.3182995,0.5 41.484375,0.5 L3.515625,0.5 C2.68170052,0.5 1.98116207,0.791374401 1.38626823,1.38626823 C0.791374401,1.98116207 0.5,2.68170052 0.5,3.515625 L0.5,30.234375 C0.5,31.0682995 0.791374401,31.7688379 1.38626823,32.3637318 C1.98116207,32.9586256 2.68170052,33.25 3.515625,33.25 L41.484375,33.25 C42.3182995,33.25 43.0188379,32.9586256 43.6137318,32.3637318 C44.2086256,31.7688379 44.5,31.0682995 44.5,30.234375 L44.5,3.515625 Z"></path>
                    </g>
                    <g id="Path">
                        <use fill="#18A6B9" fill-rule="evenodd" xlink:href="#path-2"></use>
                        <path stroke="#FFFFFF" stroke-width="1" d="M15.2795328,18.0839642 C14.2771331,19.0146356 13.0612429,19.484375 11.65625,19.484375 C10.2512571,19.484375 9.03536692,19.0146356 8.03296718,18.0839642 C7.53361853,18.1143503 7.10799282,18.2633058 6.74492569,18.5302669 C6.32529511,18.8388188 6.00926783,19.2632868 5.79382532,19.8145662 C5.55774181,20.4186622 5.38764222,21.0435179 5.28341548,21.6897236 C5.17795323,22.3435896 5.125,23.0531629 5.125,23.8183594 C5.125,24.5115987 5.31788029,25.0841164 5.70411732,25.5561838 C6.07373104,26.0079339 6.48714955,26.21875 6.97607422,26.21875 L16.3364258,26.21875 C16.8253504,26.21875 17.238769,26.0079339 17.6083827,25.5561838 C17.9946197,25.0841164 18.1875,24.5115987 18.1875,23.8183594 C18.1875,23.0531629 18.1345468,22.3435896 18.0290845,21.6897236 C17.9248578,21.0435179 17.7547582,20.4186622 17.5186747,19.8145662 C17.3032322,19.2632868 16.9872049,18.8388188 16.5675743,18.5302669 C16.2045072,18.2633058 15.7788815,18.1143503 15.2795328,18.0839642 Z"></path>
                    </g>
                    <g id="Path">
                        <use fill="#18A6B9" fill-rule="evenodd" xlink:href="#path-3"></use>
                        <path stroke="#FFFFFF" stroke-width="1" d="M15.375,14.0625 C15.375,13.0228589 15.0172548,12.154049 14.2909779,11.4277721 C13.564701,10.7014952 12.6958911,10.34375 11.65625,10.34375 C10.6166089,10.34375 9.74779905,10.7014952 9.02152214,11.4277721 C8.29524523,12.154049 7.9375,13.0228589 7.9375,14.0625 C7.9375,15.1021411 8.29524523,15.970951 9.02152214,16.6972279 C9.74779905,17.4235048 10.6166089,17.78125 11.65625,17.78125 C12.6958911,17.78125 13.564701,17.4235048 14.2909779,16.6972279 C15.0172548,15.970951 15.375,15.1021411 15.375,14.0625 Z"></path>
                    </g>
                </g>
            </g>
        </g>
    </g>
</svg>